<?xml version="1.0" encoding="UTF-8"?>
<svg xmlns="http://www.w3.org/2000/svg" xmlns:xlink="http://www.w3.org/1999/xlink" width="2835" height="2835" viewBox="0 0 2835 2835">
<path fill-rule="evenodd" fill="rgb(100%, 100%, 100%)" fill-opacity="1" d="M 0 0.351562 L 2834.648438 0.351562 L 2834.648438 2835 L 0 2835 L 0 0.351562 "/>
<path fill-rule="nonzero" fill="rgb(45.872498%, 17.259216%, 10.594177%)" fill-opacity="1" d="M 1675.519531 1738.050781 C 1617.960938 1772.519531 1548.5 1786.398438 1474.410156 1773.25 C 1400.269531 1760.039062 1332.46875 1721.671875 1277.730469 1667.238281 L 1139.328125 1724.121094 L 937.804688 1906.605469 L 1317.449219 2415.914062 L 1455.851562 2359.039062 L 1863.308594 1989.996094 L 1675.519531 1738.050781 "/>
<path fill-rule="nonzero" fill="rgb(14.892578%, 10.205078%, 24.31488%)" fill-opacity="1" d="M 1142.5 1327.988281 C 1145.101562 1245.269531 1170.988281 1172.898438 1212.789062 1117.320312 L 1024.941406 865.371094 L 886.539062 922.25 L 479.082031 1291.339844 L 858.78125 1800.601562 L 997.179688 1743.769531 L 1198.75 1561.171875 C 1160.851562 1491.398438 1139.839844 1410.660156 1142.5 1327.988281 "/>
<path fill-rule="nonzero" fill="rgb(52.539062%, 45.483398%, 9.790039%)" fill-opacity="1" d="M 1517.25 419.441406 L 1378.800781 476.269531 L 971.390625 845.410156 L 1159.191406 1097.300781 L 1236.859375 1065.378906 C 1275.488281 1055.921875 1317.089844 1054.410156 1360.289062 1062.109375 C 1434.378906 1075.308594 1502.171875 1113.628906 1556.921875 1168.121094 L 1695.378906 1111.289062 L 1896.890625 928.699219 L 1517.25 419.441406 "/>
<path fill-rule="nonzero" fill="rgb(46.679688%, 34.130859%, 21.580505%)" fill-opacity="1" d="M 1975.921875 1034.761719 L 1837.519531 1091.578125 L 1635.949219 1274.179688 C 1673.800781 1343.949219 1694.800781 1424.691406 1692.199219 1507.359375 C 1689.601562 1590.078125 1663.710938 1662.511719 1621.910156 1718.078125 L 1809.699219 1969.984375 L 1948.101562 1913.15625 L 2355.558594 1544.019531 L 1975.921875 1034.761719 "/>
<path fill-rule="nonzero" fill="rgb(47.459412%, 34.521484%, 21.946716%)" fill-opacity="1" d="M 1774.351562 1217.300781 L 1635.949219 1274.179688 L 1837.519531 1091.578125 L 1975.921875 1034.761719 L 1774.351562 1217.300781 "/>
<path fill-rule="nonzero" fill="rgb(47.068787%, 34.130859%, 21.580505%)" fill-opacity="1" d="M 1760.308594 1661.261719 L 1621.910156 1718.078125 C 1663.761719 1662.511719 1689.601562 1590.078125 1692.199219 1507.410156 C 1694.851562 1424.75 1673.800781 1343.949219 1635.949219 1274.179688 L 1774.398438 1217.351562 C 1812.25 1287.121094 1833.261719 1367.871094 1830.660156 1450.589844 L 1830.519531 1454.460938 L 1830.339844 1458.308594 L 1830.128906 1462.140625 L 1829.890625 1465.96875 L 1829.609375 1469.769531 L 1829.300781 1473.558594 L 1828.960938 1477.328125 L 1828.960938 1477.339844 L 1828.589844 1481.089844 L 1828.589844 1481.101562 L 1828.179688 1484.828125 L 1828.179688 1484.839844 L 1827.738281 1488.558594 L 1827.269531 1492.269531 L 1826.769531 1495.960938 L 1826.230469 1499.640625 L 1825.660156 1503.289062 L 1825.660156 1503.300781 L 1825.058594 1506.929688 L 1825.058594 1506.941406 L 1824.429688 1510.558594 L 1823.769531 1514.160156 L 1823.769531 1514.171875 L 1823.078125 1517.75 L 1823.078125 1517.761719 L 1822.351562 1521.320312 L 1822.351562 1521.328125 L 1821.601562 1524.878906 L 1821.601562 1524.890625 L 1820.808594 1528.410156 L 1820.808594 1528.421875 L 1819.988281 1531.929688 L 1819.988281 1531.941406 L 1819.140625 1535.421875 L 1819.140625 1535.441406 L 1818.269531 1538.910156 L 1818.269531 1538.921875 C 1806.96875 1582.871094 1788.449219 1622.339844 1764.191406 1655.988281 L 1764.191406 1656 L 1762.261719 1658.640625 L 1760.308594 1661.261719 "/>
<path fill-rule="nonzero" fill="rgb(88.671875%, 64.646912%, 40.771484%)" fill-opacity="1" d="M 1975.921875 1034.761719 L 2355.558594 1544.019531 L 1948.101562 1913.15625 L 1760.308594 1661.261719 C 1802.171875 1605.679688 1828 1533.261719 1830.601562 1450.589844 C 1833.261719 1367.871094 1812.25 1287.121094 1774.351562 1217.351562 L 1975.921875 1034.761719 "/>
<path fill-rule="nonzero" fill="rgb(46.679688%, 34.130859%, 21.580505%)" fill-opacity="1" d="M 1948.101562 1913.15625 L 1809.699219 1969.984375 L 1621.910156 1718.078125 L 1760.308594 1661.199219 L 1948.101562 1913.15625 "/>
<path fill-rule="nonzero" fill="rgb(52.146912%, 45.092773%, 9.790039%)" fill-opacity="1" d="M 1695.320312 1111.289062 L 1556.921875 1168.171875 C 1502.171875 1113.679688 1434.378906 1075.308594 1360.289062 1062.109375 L 1357.550781 1061.628906 L 1354.808594 1061.179688 L 1354.800781 1061.179688 L 1352.070312 1060.761719 L 1349.351562 1060.359375 L 1349.339844 1060.359375 L 1346.621094 1059.980469 L 1346.609375 1059.980469 L 1343.898438 1059.621094 L 1343.890625 1059.621094 L 1341.191406 1059.300781 L 1341.179688 1059.300781 L 1338.480469 1058.988281 L 1338.460938 1058.988281 L 1335.769531 1058.71875 L 1335.75 1058.71875 L 1333.070312 1058.460938 L 1333.050781 1058.460938 L 1330.371094 1058.230469 L 1330.359375 1058.230469 L 1327.679688 1058.019531 L 1327.660156 1058.019531 L 1325 1057.839844 L 1324.980469 1057.839844 L 1322.320312 1057.671875 L 1322.300781 1057.671875 L 1319.640625 1057.539062 L 1319.621094 1057.539062 L 1316.980469 1057.429688 L 1316.949219 1057.429688 L 1314.308594 1057.339844 L 1314.289062 1057.339844 L 1311.648438 1057.269531 L 1311.628906 1057.269531 L 1309 1057.230469 L 1308.980469 1057.230469 L 1306.359375 1057.210938 L 1306.328125 1057.210938 L 1303.710938 1057.21875 L 1303.691406 1057.21875 L 1301.078125 1057.238281 L 1301.050781 1057.238281 L 1298.449219 1057.300781 L 1298.429688 1057.300781 L 1295.828125 1057.371094 L 1295.808594 1057.371094 L 1293.210938 1057.46875 L 1293.191406 1057.46875 L 1290.601562 1057.589844 L 1290.578125 1057.589844 L 1288 1057.730469 L 1287.96875 1057.730469 L 1285.398438 1057.898438 L 1285.378906 1057.898438 L 1282.808594 1058.089844 L 1282.789062 1058.089844 L 1280.21875 1058.300781 L 1280.199219 1058.300781 L 1277.640625 1058.53125 L 1277.621094 1058.53125 L 1275.070312 1058.789062 L 1275.058594 1058.789062 L 1272.511719 1059.058594 L 1272.488281 1059.058594 L 1269.949219 1059.359375 L 1269.941406 1059.359375 L 1267.398438 1059.691406 L 1267.390625 1059.691406 L 1264.859375 1060.039062 L 1264.851562 1060.039062 L 1262.328125 1060.398438 L 1262.308594 1060.398438 L 1259.789062 1060.789062 L 1259.78125 1060.789062 L 1257.269531 1061.199219 L 1257.261719 1061.199219 L 1254.761719 1061.640625 L 1254.75 1061.640625 L 1252.261719 1062.089844 L 1252.238281 1062.089844 L 1249.75 1062.570312 L 1249.738281 1062.570312 L 1247.261719 1063.070312 L 1247.25 1063.070312 L 1244.78125 1063.589844 L 1244.769531 1063.589844 L 1242.308594 1064.128906 L 1242.300781 1064.128906 L 1239.839844 1064.691406 L 1239.828125 1064.691406 L 1237.378906 1065.28125 L 1237.371094 1065.28125 L 1234.929688 1065.890625 L 1234.921875 1065.890625 L 1232.488281 1066.511719 L 1232.480469 1066.511719 L 1230.050781 1067.160156 L 1230.039062 1067.160156 L 1227.621094 1067.828125 L 1225.199219 1068.519531 L 1222.800781 1069.230469 L 1222.789062 1069.230469 L 1220.390625 1069.96875 L 1218 1070.71875 L 1215.621094 1071.5 L 1213.238281 1072.289062 L 1210.878906 1073.109375 L 1208.519531 1073.949219 L 1206.171875 1074.800781 L 1203.839844 1075.679688 L 1201.511719 1076.578125 L 1199.191406 1077.488281 L 1196.878906 1078.429688 Z M 1408.378906 1002.511719 L 1410.910156 1002.210938 L 1410.941406 1002.210938 L 1413.480469 1001.929688 L 1413.5 1001.929688 L 1416.050781 1001.679688 L 1416.070312 1001.679688 L 1418.621094 1001.441406 L 1418.648438 1001.441406 L 1421.210938 1001.230469 L 1421.230469 1001.230469 L 1423.800781 1001.039062 L 1423.820312 1001.039062 L 1426.398438 1000.878906 L 1426.421875 1000.878906 L 1429 1000.730469 L 1429.019531 1000.730469 L 1431.609375 1000.609375 L 1431.628906 1000.609375 L 1434.230469 1000.519531 L 1434.238281 1000.519531 L 1436.851562 1000.441406 L 1436.871094 1000.441406 L 1439.480469 1000.390625 L 1439.5 1000.390625 L 1442.109375 1000.359375 L 1444.769531 1000.359375 L 1447.398438 1000.378906 L 1447.410156 1000.378906 L 1450.058594 1000.421875 L 1450.070312 1000.421875 L 1452.710938 1000.488281 L 1452.71875 1000.488281 L 1455.378906 1000.578125 L 1455.390625 1000.578125 L 1458.050781 1000.691406 L 1460.71875 1000.828125 L 1460.730469 1000.828125 L 1463.398438 1000.988281 L 1463.410156 1000.988281 L 1466.089844 1001.171875 L 1468.78125 1001.378906 L 1471.46875 1001.609375 L 1471.480469 1001.609375 L 1474.171875 1001.871094 L 1474.179688 1001.871094 L 1476.878906 1002.148438 L 1479.589844 1002.460938 L 1482.308594 1002.789062 L 1485.03125 1003.140625 L 1487.75 1003.519531 L 1490.480469 1003.921875 L 1493.210938 1004.351562 L 1495.949219 1004.800781 L 1498.691406 1005.28125 L 1502.160156 1005.921875 L 1505.621094 1006.589844 L 1509.070312 1007.300781 L 1509.078125 1007.300781 L 1512.511719 1008.050781 L 1512.519531 1008.050781 L 1515.941406 1008.828125 L 1515.949219 1008.828125 L 1519.359375 1009.648438 L 1519.371094 1009.648438 L 1522.769531 1010.511719 C 1586.308594 1026.78125 1644.488281 1061.558594 1692.800781 1108.75 L 1695.378906 1111.289062 Z M 1695.320312 1111.289062 L 1695.320312 1111.289062 "/>
<path fill-rule="nonzero" fill="rgb(52.539062%, 45.483398%, 9.790039%)" fill-opacity="1" d="M 1109.789062 788.53125 L 971.390625 845.410156 L 1378.851562 476.269531 L 1517.25 419.441406 L 1109.789062 788.53125 "/>
<path fill-rule="nonzero" fill="rgb(51.756287%, 44.700623%, 9.790039%)" fill-opacity="1" d="M 1297.589844 1040.480469 L 1159.191406 1097.300781 L 971.390625 845.410156 L 1109.789062 788.53125 L 1297.589844 1040.480469 "/>
<path fill-rule="nonzero" fill="rgb(98.046875%, 85.15625%, 18.431091%)" fill-opacity="1" d="M 1517.25 419.441406 L 1896.890625 928.75 L 1695.320312 1111.289062 C 1640.570312 1056.859375 1572.78125 1018.488281 1498.691406 1005.28125 C 1424.601562 992.070312 1355.140625 1006.011719 1297.589844 1040.480469 L 1109.789062 788.53125 L 1517.25 419.441406 "/>
<path fill-rule="nonzero" fill="rgb(45.092773%, 16.868591%, 10.205078%)" fill-opacity="1" d="M 1455.851562 2359.039062 L 1317.449219 2415.914062 L 937.804688 1906.605469 L 1076.210938 1849.78125 L 1455.851562 2359.039062 "/>
<path fill-rule="nonzero" fill="rgb(85.546875%, 32.151794%, 19.604492%)" fill-opacity="1" d="M 1675.519531 1738.050781 L 1863.308594 1989.996094 L 1455.851562 2359.085938 L 1076.210938 1849.78125 L 1277.730469 1667.238281 C 1332.46875 1721.71875 1400.269531 1760.039062 1474.410156 1773.25 C 1548.5 1786.449219 1617.960938 1772.519531 1675.519531 1738.050781 "/>
<path fill-rule="nonzero" fill="rgb(45.872498%, 17.259216%, 10.594177%)" fill-opacity="1" d="M 1076.210938 1849.78125 L 937.804688 1906.605469 L 1139.328125 1724.058594 L 1277.730469 1667.179688 L 1076.210938 1849.78125 "/>
<path fill-rule="nonzero" fill="rgb(14.892578%, 9.790039%, 23.925781%)" fill-opacity="1" d="M 997.179688 1743.769531 L 858.78125 1800.601562 L 479.082031 1291.339844 L 617.484375 1234.511719 L 997.179688 1743.769531 "/>
<path fill-rule="nonzero" fill="rgb(28.24707%, 18.821716%, 45.092773%)" fill-opacity="1" d="M 1024.941406 865.371094 L 1212.789062 1117.320312 C 1170.941406 1172.898438 1145.101562 1245.269531 1142.441406 1327.988281 C 1139.839844 1410.660156 1160.851562 1491.398438 1198.699219 1561.171875 L 997.179688 1743.769531 L 617.484375 1234.511719 L 1024.941406 865.371094 "/>
<path fill-rule="nonzero" fill="rgb(14.892578%, 10.205078%, 24.31488%)" fill-opacity="1" d="M 617.484375 1234.511719 L 479.082031 1291.339844 L 886.539062 922.25 L 1024.941406 865.371094 L 617.484375 1234.511719 "/>
</svg>
